# Blender v2.80 (sub 75) OBJ File: ''
# www.blender.org
mtllib auroc.mtl
o Cube.002
v 0.125000 0.005000 -0.125000
v -0.125000 0.005000 -0.125000
v -0.125000 0.005000 0.125000
v 0.125000 0.005000 0.125000
v 0.125000 -0.005000 0.125000
v -0.125000 -0.005000 0.125000
v -0.125000 -0.005000 -0.125000
v 0.125000 -0.005000 -0.125000
vt 0.000545 0.000448
vt 1.000507 0.000683
vt 1.000203 0.999559
vt 0.000097 1.000029
vt 0.375000 0.250000
vt 0.625000 0.250000
vt 0.625000 0.500000
vt 0.375000 0.500000
vt 0.625000 0.750000
vt 0.375000 0.750000
vt 0.625000 0.750000
vt 0.625000 1.000000
vt 0.375000 1.000000
vt 0.125000 0.500000
vt 0.375000 0.500000
vt 0.375000 0.750000
vt 0.125000 0.750000
vt 0.625000 0.500000
vt 0.875000 0.500000
vt 0.875000 0.750000
vn 0.0000 1.0000 0.0000
vn 0.0000 0.0000 1.0000
vn -1.0000 0.0000 0.0000
vn 0.0000 -1.0000 -0.0000
vn 1.0000 0.0000 0.0000
vn 0.0000 0.0000 -1.0000
usemtl Material.002
s 1
f 1/1/1 2/2/1 3/3/1 4/4/1
f 5/5/2 4/6/2 3/7/2 6/8/2
f 6/8/3 3/7/3 2/9/3 7/10/3
f 7/10/4 8/11/4 5/12/4 6/13/4
f 8/14/5 1/15/5 4/16/5 5/17/5
f 7/18/6 2/19/6 1/20/6 8/11/6
